<?xml version="1.0" encoding="iso-8859-1"?>
<!-- Generator: Adobe Illustrator 17.0.0, SVG Export Plug-In . SVG Version: 6.00 Build 0)  -->
<!DOCTYPE svg PUBLIC "-//W3C//DTD SVG 1.1//EN" "http://www.w3.org/Graphics/SVG/1.1/DTD/svg11.dtd">
<svg version="1.1" id="Capa_1" xmlns="http://www.w3.org/2000/svg" xmlns:xlink="http://www.w3.org/1999/xlink" x="0px" y="0px"
	 width="64px" height="64px" viewBox="0 0 64 64" style="enable-background:new 0 0 64 64;" xml:space="preserve">
<path d="M16.499,18.969v38.895h10.888V18.969H16.499z M25.399,47.779h-6.855c-0.33,0-0.596-0.267-0.596-0.596
	c0-0.329,0.267-0.596,0.596-0.596h6.855c0.33,0,0.596,0.267,0.596,0.596C25.996,47.513,25.729,47.779,25.399,47.779z M25.399,44.203
	h-6.855c-0.33,0-0.596-0.267-0.596-0.596c0-0.33,0.267-0.597,0.596-0.597h6.855c0.33,0,0.596,0.267,0.596,0.597
	C25.996,43.937,25.729,44.203,25.399,44.203z M25.399,40.627h-6.855c-0.33,0-0.596-0.267-0.596-0.597
	c0-0.329,0.267-0.596,0.596-0.596h6.855c0.33,0,0.596,0.267,0.596,0.596C25.996,40.36,25.729,40.627,25.399,40.627z M25.399,37.05
	h-6.855c-0.33,0-0.596-0.267-0.596-0.596c0-0.329,0.267-0.596,0.596-0.596h6.855c0.33,0,0.596,0.267,0.596,0.596
	C25.996,36.783,25.729,37.05,25.399,37.05z M25.399,33.474h-6.855c-0.33,0-0.596-0.267-0.596-0.596c0-0.33,0.267-0.597,0.596-0.597
	h6.855c0.33,0,0.596,0.267,0.596,0.597C25.996,33.207,25.729,33.474,25.399,33.474z M25.399,29.897h-6.855
	c-0.33,0-0.596-0.267-0.596-0.596c0-0.329,0.267-0.596,0.596-0.596h6.855c0.33,0,0.596,0.267,0.596,0.596
	C25.996,29.63,25.729,29.897,25.399,29.897z M25.399,26.321h-6.855c-0.33,0-0.596-0.267-0.596-0.596s0.267-0.596,0.596-0.596h6.855
	c0.33,0,0.596,0.267,0.596,0.596S25.729,26.321,25.399,26.321z M25.399,22.744h-6.855c-0.33,0-0.596-0.267-0.596-0.596
	c0-0.33,0.267-0.596,0.596-0.596h6.855c0.33,0,0.596,0.267,0.596,0.596C25.996,22.478,25.729,22.744,25.399,22.744z"/>
<path d="M45.111,12.016v45.849h2.017V47.755h2.86v10.109h1.134V47.755h2.86v10.109H56V12.016H45.111z M49.512,41.521h-2.384
	c-0.33,0-0.597-0.267-0.597-0.596c0-0.329,0.267-0.596,0.597-0.596h2.384c0.33,0,0.596,0.267,0.596,0.596
	C50.107,41.254,49.842,41.521,49.512,41.521z M49.512,37.944h-2.384c-0.33,0-0.597-0.267-0.597-0.596
	c0-0.33,0.267-0.597,0.597-0.597h2.384c0.33,0,0.596,0.267,0.596,0.597C50.107,37.678,49.842,37.944,49.512,37.944z M49.512,34.368
	h-2.384c-0.33,0-0.597-0.267-0.597-0.597c0-0.329,0.267-0.596,0.597-0.596h2.384c0.33,0,0.596,0.267,0.596,0.596
	C50.107,34.102,49.842,34.368,49.512,34.368z M49.512,30.791h-2.384c-0.33,0-0.597-0.267-0.597-0.596
	c0-0.33,0.267-0.596,0.597-0.596h2.384c0.33,0,0.596,0.267,0.596,0.596C50.107,30.524,49.842,30.791,49.512,30.791z M49.512,27.215
	h-2.384c-0.33,0-0.597-0.267-0.597-0.596c0-0.33,0.267-0.596,0.597-0.596h2.384c0.33,0,0.596,0.267,0.596,0.596
	C50.107,26.948,49.842,27.215,49.512,27.215z M49.512,23.638h-2.384c-0.33,0-0.597-0.267-0.597-0.596
	c0-0.329,0.267-0.596,0.597-0.596h2.384c0.33,0,0.596,0.267,0.596,0.596C50.107,23.372,49.842,23.638,49.512,23.638z M49.512,20.062
	h-2.384c-0.33,0-0.597-0.267-0.597-0.596c0-0.33,0.267-0.596,0.597-0.596h2.384c0.33,0,0.596,0.267,0.596,0.596
	C50.107,19.795,49.842,20.062,49.512,20.062z M49.512,16.485h-2.384c-0.33,0-0.597-0.267-0.597-0.596
	c0-0.33,0.267-0.596,0.597-0.596h2.384c0.33,0,0.596,0.267,0.596,0.596C50.107,16.219,49.842,16.485,49.512,16.485z M53.982,41.521
	h-2.385c-0.329,0-0.596-0.267-0.596-0.596c0-0.329,0.267-0.596,0.596-0.596h2.385c0.329,0,0.596,0.267,0.596,0.596
	C54.578,41.254,54.311,41.521,53.982,41.521z M53.982,37.944h-2.385c-0.329,0-0.596-0.267-0.596-0.596
	c0-0.33,0.267-0.597,0.596-0.597h2.385c0.329,0,0.596,0.267,0.596,0.597C54.578,37.678,54.311,37.944,53.982,37.944z M53.982,34.368
	h-2.385c-0.329,0-0.596-0.267-0.596-0.597c0-0.329,0.267-0.596,0.596-0.596h2.385c0.329,0,0.596,0.267,0.596,0.596
	C54.578,34.102,54.311,34.368,53.982,34.368z M53.982,30.791h-2.385c-0.329,0-0.596-0.267-0.596-0.596
	c0-0.33,0.267-0.596,0.596-0.596h2.385c0.329,0,0.596,0.267,0.596,0.596C54.578,30.524,54.311,30.791,53.982,30.791z M53.982,27.215
	h-2.385c-0.329,0-0.596-0.267-0.596-0.596c0-0.33,0.267-0.596,0.596-0.596h2.385c0.329,0,0.596,0.267,0.596,0.596
	C54.578,26.948,54.311,27.215,53.982,27.215z M53.982,23.638h-2.385c-0.329,0-0.596-0.267-0.596-0.596
	c0-0.329,0.267-0.596,0.596-0.596h2.385c0.329,0,0.596,0.267,0.596,0.596C54.578,23.372,54.311,23.638,53.982,23.638z
	 M53.982,20.062h-2.385c-0.329,0-0.596-0.267-0.596-0.596c0-0.33,0.267-0.596,0.596-0.596h2.385c0.329,0,0.596,0.267,0.596,0.596
	C54.578,19.795,54.311,20.062,53.982,20.062z M53.982,16.485h-2.385c-0.329,0-0.596-0.267-0.596-0.596
	c0-0.33,0.267-0.596,0.596-0.596h2.385c0.329,0,0.596,0.267,0.596,0.596C54.578,16.219,54.311,16.485,53.982,16.485z"/>
<path d="M38.811,26.594c0-0.919-1.401-1.664-3.13-1.664c-1.729,0-3.129,0.745-3.129,1.664v1.664c0,0-0.834,0-1.863,0
	c-1.028,0-1.862,1.745-1.862,3.899v3.899h13.71c0,0,0-1.746,0-3.899c0-2.154-0.834-3.899-1.863-3.899h-1.862
	C38.811,28.258,38.811,27.513,38.811,26.594z M38.364,33.747h-5.365c0,0,0-0.829,0-1.851c0-1.022,1.201-1.851,2.682-1.851
	c1.481,0,2.683,0.828,2.683,1.851V33.747z"/>
<path d="M28.827,37.646v20.218h1.341V44.501c0-1.316,1.068-2.384,2.384-2.384c1.317,0,2.385,1.067,2.385,2.384v13.363h1.49V44.501
	c0-1.316,1.066-2.384,2.384-2.384c1.316,0,2.384,1.067,2.384,2.384v13.363h1.342V37.646H28.827z"/>
<path d="M9.028,38.788c-3.007,0-5.444,2.67-5.444,5.962v13.114h10.889V44.75C14.472,41.458,12.035,38.788,9.028,38.788z
	 M6.995,55.479H5.132v-3.055h1.863V55.479z M6.995,50.811H5.132v-3.056h1.863V50.811z M6.995,46.141H5.132v-3.055h1.863V46.141z
	 M9.959,55.479H8.097v-3.055h1.863V55.479z M9.959,50.811H8.097v-3.056h1.863V50.811z M9.959,46.141H8.097v-3.055h1.863V46.141z
	 M12.923,55.479H11.06v-3.055h1.863V55.479z M12.923,50.811H11.06v-3.056h1.863V50.811z M12.923,46.141H11.06v-3.055h1.863V46.141z"
	/>
</svg>
